<?xml version="1.0" encoding="UTF-8"?>
<!-- Generator: visioncortex VTracer 0.6.3 -->
<svg version="1.1" xmlns="http://www.w3.org/2000/svg" width="1280" height="1280">
<path d="M0 0 C422.4 0 844.8 0 1280 0 C1280 422.4 1280 844.8 1280 1280 C857.6 1280 435.2 1280 0 1280 C0 857.6 0 435.2 0 0 Z " fill="#EED103" transform="translate(0,0)"/>
<path d="M0 0 C1.14 0.01 1.14 0.01 2.29 0.02 C3.5 0.02 3.5 0.02 4.72 0.01 C7.43 0.01 10.13 0.02 12.83 0.03 C14.76 0.03 16.69 0.03 18.63 0.03 C23.88 0.03 29.14 0.04 34.39 0.06 C39.88 0.07 45.37 0.07 50.86 0.07 C61.25 0.08 71.65 0.09 82.05 0.11 C93.89 0.14 105.72 0.15 117.56 0.16 C141.91 0.18 166.26 0.21 190.61 0.26 C191.78 5.52 191.61 10.58 191.4 15.93 C191.3 20.81 191.89 24.04 194.61 28.26 C196.18 29.93 196.18 29.93 197.99 31.07 C198.83 31.67 198.83 31.67 199.7 32.28 C204.63 34.81 209.97 34.35 215.36 34.26 C218.12 34.21 220.85 34.21 223.61 34.26 C224.61 35.26 224.61 35.26 224.73 37.79 C224.73 38.92 224.73 40.06 224.73 41.22 C224.73 43.17 224.73 43.17 224.74 45.16 C224.73 46.61 224.73 48.06 224.73 49.51 C224.73 51.03 224.73 52.54 224.73 54.06 C224.73 58.19 224.72 62.32 224.71 66.46 C224.71 70.77 224.71 75.08 224.71 79.4 C224.7 87.57 224.69 95.75 224.68 103.92 C224.67 113.22 224.67 122.53 224.66 131.83 C224.65 150.97 224.63 170.12 224.61 189.26 C208.77 189.75 208.77 189.75 192.61 190.26 C192.28 215.01 191.95 239.76 191.61 265.26 C180.26 265.29 180.26 265.29 168.67 265.32 C166.28 265.33 163.89 265.34 161.42 265.35 C159.54 265.35 157.66 265.35 155.77 265.36 C154.29 265.36 154.29 265.36 152.78 265.37 C151.38 265.37 151.38 265.37 149.95 265.37 C149.13 265.37 148.32 265.38 147.48 265.38 C145.61 265.26 145.61 265.26 144.61 264.26 C144.45 261.52 144.35 258.81 144.3 256.07 C144.27 255.25 144.25 254.43 144.23 253.58 C144.17 250.95 144.11 248.32 144.05 245.7 C144.01 243.92 143.96 242.14 143.92 240.36 C143.81 235.99 143.71 231.63 143.61 227.26 C139.29 227.28 134.97 227.33 130.64 227.41 C129.17 227.43 127.7 227.45 126.23 227.45 C124.12 227.46 122 227.5 119.88 227.55 C118.61 227.57 117.34 227.58 116.03 227.6 C111.76 228.42 110.29 229.9 107.61 233.26 C106.47 236.68 106.5 239.29 106.51 242.89 C106.52 244.19 106.52 245.49 106.52 246.83 C106.53 248.2 106.54 249.57 106.55 250.95 C106.55 252.33 106.56 253.71 106.56 255.1 C106.57 258.48 106.59 261.87 106.61 265.26 C100.65 265.28 94.69 265.3 88.72 265.31 C86.69 265.32 84.66 265.32 82.63 265.33 C79.72 265.35 76.81 265.35 73.9 265.36 C72.53 265.36 72.53 265.36 71.13 265.37 C68.96 265.37 66.78 265.32 64.61 265.26 C62.56 263.2 63.35 258.9 63.3 256.07 C63.27 255.25 63.25 254.43 63.23 253.58 C63.17 250.95 63.11 248.32 63.05 245.7 C63.01 243.92 62.96 242.14 62.92 240.36 C62.81 235.99 62.71 231.63 62.61 227.26 C58.36 227.31 54.11 227.41 49.86 227.51 C48.66 227.52 47.45 227.54 46.21 227.55 C45.05 227.58 43.89 227.62 42.69 227.65 C41.62 227.67 40.55 227.69 39.45 227.71 C35.91 228.39 34.79 229.42 32.61 232.26 C30.54 236.18 30.38 239.48 30.42 243.87 C30.42 245.12 30.43 246.37 30.44 247.65 C30.45 248.94 30.47 250.24 30.49 251.57 C30.5 252.88 30.5 254.2 30.51 255.55 C30.54 258.79 30.57 262.02 30.61 265.26 C25.36 265.28 20.11 265.3 14.86 265.31 C13.07 265.32 11.28 265.32 9.5 265.33 C6.93 265.35 4.37 265.35 1.8 265.36 C0.6 265.36 0.6 265.36 -0.63 265.37 C-2.55 265.37 -4.47 265.32 -6.39 265.26 C-8.26 263.38 -7.55 260.18 -7.58 257.67 C-7.59 256.99 -7.59 256.3 -7.6 255.59 C-7.62 254.09 -7.64 252.59 -7.65 251.1 C-7.67 248.73 -7.7 246.36 -7.73 243.99 C-7.78 238.95 -7.84 233.92 -7.89 228.88 C-7.95 223.06 -8.01 217.23 -8.08 211.41 C-8.11 209.07 -8.13 206.73 -8.15 204.4 C-8.16 202.97 -8.18 201.53 -8.2 200.1 C-8.21 198.85 -8.22 197.6 -8.24 196.31 C-8.25 193.21 -8.25 193.21 -9.39 190.26 C-10.26 190.26 -11.12 190.27 -12.02 190.27 C-15.24 190.29 -18.45 190.3 -21.67 190.31 C-23.06 190.32 -24.45 190.32 -25.85 190.33 C-27.85 190.35 -29.85 190.35 -31.85 190.36 C-33.05 190.36 -34.26 190.37 -35.5 190.37 C-38.39 190.26 -38.39 190.26 -40.39 189.26 C-40.43 169.21 -40.47 149.17 -40.49 129.12 C-40.5 119.82 -40.52 110.51 -40.54 101.2 C-40.56 93.1 -40.57 84.99 -40.58 76.88 C-40.58 72.58 -40.59 68.29 -40.6 63.99 C-40.61 59.95 -40.62 55.91 -40.61 51.87 C-40.61 50.38 -40.62 48.9 -40.63 47.41 C-40.64 45.39 -40.63 43.37 -40.63 41.35 C-40.63 40.21 -40.63 39.08 -40.63 37.91 C-40.39 35.26 -40.39 35.26 -38.39 33.26 C-35.32 33.03 -35.32 33.03 -31.41 33.06 C-30.73 33.07 -30.04 33.07 -29.34 33.07 C-27.14 33.08 -24.95 33.11 -22.76 33.13 C-21.28 33.14 -19.79 33.15 -18.31 33.16 C-14.67 33.18 -11.03 33.22 -7.39 33.26 C-7.4 31.87 -7.4 31.87 -7.42 30.44 C-7.45 27 -7.48 23.56 -7.5 20.12 C-7.51 18.63 -7.52 17.14 -7.54 15.65 C-7.56 13.51 -7.57 11.37 -7.58 9.23 C-7.6 7.3 -7.6 7.3 -7.62 5.33 C-7.22 -0.05 -4.83 0.03 0 0 Z " fill="#030303" transform="translate(685.3880931138992,458.7418373823166)"/>
<path d="M0 0 C0.83 -0.01 1.66 -0.01 2.51 -0.02 C5.23 -0.03 7.95 -0.01 10.67 0.01 C12.58 0.01 14.48 0 16.39 0 C20.38 -0 24.38 0.01 28.37 0.04 C33.46 0.06 38.54 0.06 43.63 0.05 C47.57 0.04 51.51 0.05 55.45 0.06 C57.32 0.07 59.2 0.07 61.07 0.06 C70.55 0.05 79.39 0.23 88.6 2.79 C91.45 3.54 94.2 3.89 97.12 4.19 C105.26 5.47 112.19 9.56 119.31 13.5 C120.3 14.03 121.29 14.57 122.31 15.11 C136.82 23.31 145.95 38.98 151.31 54.5 C157.97 79.34 157.83 105.27 157.76 130.79 C157.75 134.22 157.76 137.65 157.78 141.08 C158.17 200.18 158.17 200.18 149.61 217.43 C149.13 218.4 149.13 218.4 148.65 219.39 C148.31 220.04 147.97 220.7 147.62 221.38 C147.27 222.07 146.92 222.76 146.56 223.48 C142.49 231.31 137.89 238.54 131.31 244.5 C130.59 245.19 129.87 245.88 129.13 246.59 C109.69 264.82 86.29 266.98 60.78 267.01 C58.64 267.02 56.51 267.03 54.37 267.04 C49.93 267.05 45.49 267.06 41.05 267.06 C35.36 267.06 29.68 267.1 24 267.15 C19.6 267.18 15.21 267.19 10.81 267.19 C8.72 267.19 6.62 267.2 4.53 267.23 C1.6 267.26 -1.32 267.25 -4.24 267.23 C-5.53 267.26 -5.53 267.26 -6.84 267.28 C-12.03 267.2 -15.51 266.26 -19.26 262.55 C-24.81 254.56 -24.11 243.63 -24.04 234.34 C-24.05 232.96 -24.05 231.59 -24.05 230.21 C-24.06 226.51 -24.04 222.81 -24.03 219.11 C-24.01 215.22 -24.01 211.33 -24.01 207.43 C-24.01 200.91 -23.99 194.38 -23.97 187.85 C-23.94 179.49 -23.93 171.13 -23.93 162.77 C-23.92 155.55 -23.91 148.34 -23.9 141.12 C-23.89 138.81 -23.89 136.51 -23.89 134.2 C-23.88 130.57 -23.87 126.93 -23.86 123.3 C-23.85 121.35 -23.85 119.39 -23.85 117.44 C-23.82 111.74 -23.64 106.2 -22.91 100.55 C-22.52 97.01 -22.55 93.48 -22.56 89.93 C-22.56 89.12 -22.56 88.32 -22.56 87.49 C-22.55 85.76 -22.55 84.03 -22.55 82.3 C-22.55 77.65 -22.51 72.99 -22.49 68.34 C-22.46 62.44 -22.44 56.55 -22.44 50.65 C-22.44 45.86 -22.42 41.07 -22.38 36.28 C-22.37 34.47 -22.36 32.65 -22.37 30.84 C-22.45 10.44 -22.45 10.44 -16.69 4.5 C-11.26 0.85 -6.44 -0.08 0 0 Z " fill="#030303" transform="translate(451.688232421875,456.498291015625)"/>
<path d="M0 0 C1.25 0 2.5 0 3.78 0 C5.08 0.02 6.37 0.03 7.7 0.05 C8.98 0.05 10.26 0.04 11.58 0.04 C27.32 0.13 27.32 0.13 31.39 2.36 C35.77 7.51 35.95 11.6 35.86 18.21 C35.86 19.2 35.86 20.18 35.86 21.2 C35.87 24.49 35.84 27.78 35.81 31.07 C35.81 33.42 35.81 35.77 35.8 38.12 C35.79 44.48 35.76 50.84 35.72 57.2 C35.69 63.18 35.67 69.15 35.66 75.12 C35.61 91.54 35.51 107.95 35.4 124.37 C35.38 127.63 35.36 130.89 35.34 134.15 C35.23 150.86 35.1 167.58 34.95 184.3 C34.94 185.39 34.93 186.48 34.92 187.61 C34.8 201.35 34.65 215.08 34.43 228.82 C34.4 230.5 34.37 232.18 34.35 233.87 C34.28 238.42 34.2 242.98 34.09 247.53 C34.04 249.48 34.01 251.44 33.98 253.39 C33.94 254.53 33.91 255.67 33.88 256.85 C33.84 258.31 33.84 258.31 33.81 259.81 C33.31 262.81 32.53 264.22 30.39 266.36 C27.64 266.7 25.31 266.79 22.57 266.68 C21.79 266.66 21.01 266.64 20.21 266.62 C18.51 266.58 16.81 266.52 15.12 266.46 C12.26 266.36 9.41 266.31 6.55 266.27 C4.6 266.22 2.65 266.17 0.7 266.11 C-0.22 266.1 -1.14 266.09 -2.09 266.07 C-8.18 265.85 -13.11 264.87 -17.61 260.36 C-17.71 258.42 -17.74 256.47 -17.74 254.52 C-17.74 253.25 -17.75 251.98 -17.75 250.67 C-17.75 249.25 -17.74 247.83 -17.74 246.41 C-17.74 244.92 -17.75 243.44 -17.75 241.95 C-17.75 237.9 -17.75 233.85 -17.75 229.79 C-17.75 225.55 -17.75 221.31 -17.75 217.06 C-17.75 209.92 -17.75 202.78 -17.74 195.63 C-17.74 187.4 -17.74 179.17 -17.75 170.94 C-17.75 163.86 -17.75 156.78 -17.75 149.71 C-17.75 145.49 -17.75 141.26 -17.75 137.04 C-17.75 133.06 -17.75 129.08 -17.74 125.09 C-17.74 123.64 -17.74 122.19 -17.75 120.74 C-17.76 112.87 -17.51 105.11 -16.84 97.27 C-16.53 93.3 -16.51 89.37 -16.56 85.4 C-16.57 84.6 -16.58 83.8 -16.58 82.98 C-16.6 81.27 -16.61 79.57 -16.63 77.86 C-16.66 75.16 -16.67 72.45 -16.69 69.75 C-16.73 62.07 -16.78 54.39 -16.86 46.71 C-16.91 41.99 -16.94 37.27 -16.95 32.55 C-16.96 30.76 -16.98 28.97 -17.01 27.18 C-17.04 24.68 -17.05 22.18 -17.05 19.68 C-17.07 18.96 -17.08 18.23 -17.1 17.48 C-17.07 12.11 -15.68 7.82 -12.61 3.36 C-8.43 0.45 -5.03 -0.01 0 0 Z " fill="#030303" transform="translate(346.61328125,456.63671875)"/>
<path d="M0 0 C4.99 0.73 9.83 1.14 14.88 1.24 C15.98 1.27 17.08 1.29 18.22 1.32 C20.41 1.35 22.6 1.37 24.79 1.37 C31.69 1.5 36.33 2.49 41.62 7.06 C55.4 21.58 56.11 44.31 56.06 63.2 C56.06 64.78 56.07 66.36 56.07 67.93 C56.08 71.21 56.08 74.49 56.07 77.77 C56.06 81.08 56.07 84.39 56.09 87.7 C56.31 119.15 56.31 119.15 53.91 133.33 C53.69 134.65 53.69 134.65 53.47 135.99 C51.87 143.99 48.42 151.17 42.12 156.5 C41.39 157.14 40.66 157.78 39.91 158.43 C36.01 161.22 32.5 162.31 27.73 162.34 C26.79 162.35 25.84 162.36 24.87 162.37 C23.86 162.37 22.85 162.36 21.81 162.36 C20.24 162.37 20.24 162.37 18.64 162.38 C16.43 162.38 14.22 162.38 12.01 162.38 C8.64 162.38 5.26 162.4 1.88 162.42 C-0.27 162.43 -2.41 162.43 -4.56 162.43 C-5.57 162.43 -6.58 162.44 -7.62 162.45 C-16.6 162.39 -16.6 162.39 -20.38 159.06 C-21.4 155.98 -21.5 153.87 -21.5 150.65 C-21.51 149.53 -21.51 148.41 -21.51 147.26 C-21.51 146.05 -21.51 144.84 -21.51 143.59 C-21.51 142.33 -21.51 141.07 -21.51 139.77 C-21.51 136.36 -21.51 132.96 -21.5 129.56 C-21.5 127.43 -21.5 125.31 -21.5 123.19 C-21.48 107.09 -21.44 91 -20.8 74.92 C-20.46 66.31 -20.3 57.72 -20.21 49.11 C-20.19 47.08 -20.17 45.05 -20.14 43.02 C-20.13 42.34 -20.13 41.67 -20.12 40.97 C-20.1 39.6 -20.09 38.23 -20.07 36.86 C-20.03 33.44 -19.99 30.03 -19.97 26.61 C-19.94 22.77 -19.9 18.94 -19.85 15.1 C-19.85 13.93 -19.85 12.76 -19.84 11.56 C-19.83 10.48 -19.81 9.4 -19.79 8.3 C-19.78 7.35 -19.78 6.41 -19.77 5.44 C-19.3 2.61 -18.65 1.75 -16.38 0.06 C-10.92 -1.76 -5.58 -0.91 0 0 Z " fill="#EED103" transform="translate(500.375,507.9375)"/>
<path d="M0 0 C1.11 -0 1.11 -0 2.24 -0.01 C4.69 -0.01 7.14 0.01 9.58 0.03 C11.28 0.03 12.98 0.03 14.67 0.03 C18.23 0.04 21.78 0.05 25.34 0.08 C29.91 0.1 34.48 0.11 39.04 0.12 C42.55 0.12 46.05 0.13 49.55 0.14 C51.24 0.15 52.92 0.16 54.61 0.16 C56.96 0.17 59.31 0.18 61.66 0.2 C62.36 0.2 63.06 0.2 63.78 0.2 C68.58 0.24 68.58 0.24 69.7 1.36 C70.7 13.97 70.83 26.67 70.93 39.32 C70.94 40.74 70.96 42.16 70.98 43.58 C71.12 52.82 70.48 61.48 67.7 70.36 C65.85 72.21 62.81 71.56 60.33 71.61 C59.67 71.62 59 71.64 58.32 71.65 C56.1 71.7 53.89 71.74 51.68 71.78 C50.93 71.79 50.17 71.81 49.4 71.82 C45.4 71.89 41.41 71.96 37.42 72.02 C33.29 72.09 29.17 72.17 25.05 72.26 C21.88 72.33 18.71 72.38 15.53 72.43 C14.01 72.45 12.5 72.48 10.98 72.52 C8.84 72.57 6.72 72.6 4.58 72.62 C3.37 72.64 2.16 72.66 0.91 72.69 C-2.63 72.32 -4.48 71.5 -7.3 69.36 C-8.41 67.12 -8.41 67.12 -9.05 64.61 C-9.27 63.79 -9.49 62.97 -9.72 62.12 C-11.21 55 -11.41 48.32 -11.29 41.06 C-11.27 39.99 -11.25 38.92 -11.24 37.82 C-11.2 35.56 -11.16 33.31 -11.11 31.06 C-11.05 27.6 -11.01 24.15 -10.97 20.7 C-10.93 18.5 -10.89 16.31 -10.85 14.12 C-10.84 13.09 -10.83 12.05 -10.82 10.99 C-10.8 10.03 -10.77 9.07 -10.75 8.08 C-10.74 7.24 -10.72 6.4 -10.71 5.53 C-10.3 3.36 -10.3 3.36 -9.23 1.58 C-6.3 -0.28 -3.36 -0.04 0 0 Z " fill="#EED103" transform="translate(688.30126953125,543.6435546875)"/>
<path d="M0 0 C1.94 0.01 1.94 0.01 3.92 0.01 C4.98 0.01 4.98 0.01 6.07 0.01 C8.43 0.01 10.79 0.03 13.15 0.05 C14.79 0.05 16.42 0.05 18.05 0.05 C22.36 0.06 26.66 0.08 30.97 0.1 C35.36 0.12 39.75 0.13 44.14 0.14 C52.75 0.16 61.37 0.2 69.99 0.24 C71.43 3.12 71.11 5.59 71.1 8.8 C71.1 9.47 71.1 10.15 71.1 10.84 C71.1 13.07 71.09 15.3 71.09 17.53 C71.08 19.07 71.08 20.62 71.08 22.16 C71.08 26.23 71.07 30.3 71.06 34.36 C71.05 38.51 71.04 42.66 71.04 46.81 C71.03 54.95 71.01 63.1 70.99 71.24 C39.48 72.43 39.48 72.43 27.11 72.49 C25.93 72.51 24.74 72.53 23.52 72.55 C1.46 72.65 1.46 72.65 -5.01 66.24 C-5.51 63.46 -5.51 63.46 -5.5 60.06 C-5.5 58.78 -5.51 57.51 -5.52 56.19 C-5.5 54.8 -5.49 53.41 -5.47 52.02 C-5.47 50.59 -5.47 49.17 -5.47 47.74 C-5.47 44.75 -5.45 41.77 -5.42 38.78 C-5.39 34.95 -5.38 31.12 -5.38 27.28 C-5.38 24.34 -5.37 21.4 -5.36 18.45 C-5.35 17.04 -5.35 15.63 -5.35 14.21 C-5.34 12.24 -5.32 10.27 -5.3 8.29 C-5.29 7.17 -5.29 6.05 -5.28 4.89 C-4.88 0.96 -3.89 0.31 0 0 Z " fill="#EED103" transform="translate(797.0118713378906,543.7594909667969)"/>
<path d="M0 0 C0.66 0 1.32 0.01 2 0.01 C4.11 0.03 6.22 0.07 8.33 0.11 C9.76 0.12 11.2 0.13 12.63 0.15 C16.13 0.18 19.64 0.23 23.14 0.29 C24.62 3.25 24.27 6.25 24.24 9.49 C24.24 10.2 24.24 10.9 24.24 11.63 C24.23 13.89 24.22 16.16 24.21 18.42 C24.2 19.95 24.2 21.48 24.19 23.02 C24.18 26.77 24.17 30.53 24.14 34.29 C20.11 34.34 16.07 34.38 12.03 34.4 C10.66 34.41 9.28 34.43 7.91 34.44 C5.93 34.47 3.96 34.48 1.98 34.49 C0.79 34.5 -0.4 34.51 -1.63 34.52 C-4.8 34.3 -7 33.65 -9.86 32.29 C-9.93 28.22 -9.98 24.14 -10.02 20.07 C-10.04 18.68 -10.06 17.3 -10.08 15.91 C-10.12 13.92 -10.13 11.92 -10.15 9.93 C-10.17 8.13 -10.17 8.13 -10.2 6.3 C-9.86 3.29 -9.86 3.29 -8.77 1.4 C-5.84 -0.29 -3.35 -0.04 0 0 Z " fill="#EED103" transform="translate(767.85546875,614.70703125)"/>
</svg>
